# xmcd
#
# Track frame offsets:
#	150
#	21300
#	33000
#	51975
#	70950
#	84150
#	100425
#	114600
#	129075
#	146550
#	167700
#	179400
#	198375
#	217350
#	230550
#	246825
#	261000
#	275475
#
# Disc length: 3909 seconds
#
# Revision: 2
# Processed by: cddbd v1.5.2PL0 Copyright (c) Steve Scherf et al.
# Submitted via: audiograbber 1.83.01
#
DISCID=0a0f4312
DTITLE=Various Artist - CHM0011-C
DYEAR=2000
DGENRE=Karaoke
TTITLE0=Jo Dee Messina - Burn
TTITLE1=Alan Jackson - WWW.Memory
TTITLE2=Carolyn Dawn Johnson - Georgia
TTITLE3=Lee Ann Womack - Ashes By Now
TTITLE4=Clark Family Experience - Meanwhile Back At The Ranch
TTITLE5=Sara Evans - Born To Fly
TTITLE6=Terri Clark - A Little Gasoline
TTITLE7=Clay Davidson - I Can't Lie To Me
TTITLE8=Kenny Chesney - I Lost It
TTITLE9=Jo Dee Messina - Burn (vocals)
TTITLE10=Alan Jackson - WWW.Memory (vocals)
TTITLE11=Carolyn Dawn Johnson - Georgia (vocals)
TTITLE12=Lee Ann Womack - Ashes By Now (vocals)
TTITLE13=Clark Family Experience - Meanwhile Back At The Ranch (vocals)
TTITLE14=Sara Evans - Born To Fly (vocals)
TTITLE15=Terri Clark - A Little Gasoline (vocals)
TTITLE16=Clay Davidson - I Can't Lie To Me (vocals)
TTITLE17=Kenny Chesney - I Lost It (vocals)
EXTD=
EXTT0=
EXTT1=
EXTT2=
EXTT3=
EXTT4=
EXTT5=
EXTT6=
EXTT7=
EXTT8=
EXTT9=
EXTT10=
EXTT11=
EXTT12=
EXTT13=
EXTT14=
EXTT15=
EXTT16=
EXTT17=
PLAYORDER=
